<svg xmlns="http://www.w3.org/2000/svg" xmlns:xlink="http://www.w3.org/1999/xlink" contentStyleType="text/css" data-diagram-type="CLASS" height="1382px" preserveAspectRatio="none" style="width:1058px;height:1382px;background:#FFFFFF;" version="1.1" viewBox="0 0 1058 1382" width="1058px" zoomAndPan="magnify"><title>Flux de Donn&#233;es avec un TestContext</title><defs/><g><g class="title" data-source-line="2"><text fill="#000000" font-family="sans-serif" font-size="28" font-weight="bold" lengthAdjust="spacing" textLength="542.6504" x="244.1169" y="47.0703">Flux de Donn&#233;es avec un TestContext</text></g><!--cluster S1--><g class="cluster" data-entity="S1" data-source-line="5" data-uid="ent0002" id="cluster_S1"><path d="M19,618.9366 L166.5703,618.9366 A10.5,10.5 0 0 1 173.5703,625.9366 L187.5703,663.9131 L1035,663.9131 A7,7 0 0 1 1042,670.9131 L1042,1362.3966 A7,7 0 0 1 1035,1369.3966 L19,1369.3966 A7,7 0 0 1 12,1362.3966 L12,625.9366 A7,7 0 0 1 19,618.9366" fill="none" style="stroke:#696969;stroke-width:2;"/><line style="stroke:#696969;stroke-width:2;" x1="12" x2="187.5703" y1="663.9131" y2="663.9131"/><text fill="#000000" font-family="sans-serif" font-size="28" font-weight="bold" lengthAdjust="spacing" textLength="149.5703" x="20" y="650.0069">Sc&#233;nario 1</text></g><!--cluster G1--><g class="cluster" data-entity="G1" data-source-line="7" data-uid="ent0004" id="cluster_G1"><rect fill="none" height="237.48" rx="7" ry="7" style="stroke:#696969;stroke-width:2;" width="344" x="68" y="1067.9166"/><text fill="#000000" font-family="sans-serif" font-size="28" font-weight="bold" lengthAdjust="spacing" textLength="209.7402" x="135.1299" y="1098.9869">GivenStepDefs</text></g><!--cluster S2--><g class="cluster" data-entity="S2" data-source-line="26" data-uid="ent0017" id="cluster_S2"><path d="M53,86.9766 L200.5703,86.9766 A10.5,10.5 0 0 1 207.5703,93.9766 L221.5703,131.9531 L1011,131.9531 A7,7 0 0 1 1018,138.9531 L1018,513.9366 A7,7 0 0 1 1011,520.9366 L53,520.9366 A7,7 0 0 1 46,513.9366 L46,93.9766 A7,7 0 0 1 53,86.9766" fill="none" style="stroke:#696969;stroke-width:2;"/><line style="stroke:#696969;stroke-width:2;" x1="46" x2="221.5703" y1="131.9531" y2="131.9531"/><text fill="#000000" font-family="sans-serif" font-size="28" font-weight="bold" lengthAdjust="spacing" textLength="149.5703" x="54" y="118.0469">Sc&#233;nario 2</text></g><g class="entity" data-entity="TCA" data-source-line="6" data-uid="ent0003" id="entity_TCA"><rect fill="#F1F1F1" height="72.9766" rx="7" ry="7" style="stroke:#181818;stroke-width:1;" width="221.8945" x="439.06" y="704.9366"/><text fill="#000000" font-family="sans-serif" font-size="28" lengthAdjust="spacing" textLength="193.8945" x="453.06" y="736.0069">TestContext A</text><line style="stroke:#181818;stroke-width:1;" x1="441.06" x2="658.9545" y1="745.9131" y2="745.9131"/></g><g class="entity" data-entity="in" data-source-line="8" data-uid="ent0005" id="entity_in"><text fill="#000000" font-family="sans-serif" font-size="28" lengthAdjust="spacing" textLength="25.4707" x="91.2646" y="1026.0103">in</text><rect fill="#F1F1F1" height="24" style="stroke:#181818;stroke-width:3;" width="24" x="92" y="1055.9166"/></g><!--entity W1--><g class="entity" data-entity="W1" data-source-line="10" data-uid="ent0006" id="entity_W1"><rect fill="#F1F1F1" height="72.9766" rx="7" ry="7" style="stroke:#181818;stroke-width:1;" width="234.2227" x="444.88" y="1201.9166"/><text fill="#000000" font-family="sans-serif" font-size="28" lengthAdjust="spacing" textLength="194.2227" x="464.88" y="1248.9869">WhenStepDefs</text></g><!--entity T1--><g class="entity" data-entity="T1" data-source-line="13" data-uid="ent0007" id="entity_T1"><rect fill="#F1F1F1" height="72.9766" rx="7" ry="7" style="stroke:#181818;stroke-width:1;" width="227.9746" x="750.02" y="1201.9166"/><text fill="#000000" font-family="sans-serif" font-size="28" lengthAdjust="spacing" textLength="187.9746" x="770.02" y="1248.9869">ThenStepDefs</text></g><g class="entity" data-entity="TCB" data-source-line="27" data-uid="ent0018" id="entity_TCB"><rect fill="#F1F1F1" height="72.9766" rx="7" ry="7" style="stroke:#181818;stroke-width:1;" width="218.6816" x="172.66" y="399.9566"/><text fill="#000000" font-family="sans-serif" font-size="28" lengthAdjust="spacing" textLength="190.6816" x="186.66" y="431.0269">TestContext B</text><line style="stroke:#181818;stroke-width:1;" x1="174.66" x2="389.3416" y1="440.9331" y2="440.9331"/></g><g class="entity" data-entity="GMN19" data-source-line="28" data-uid="ent0020" id="entity_GMN19"><path d="M460.68,418.1366 L460.68,428.4366 L391.96,436.4366 L460.68,444.4366 L460.68,454.7577 A7,7 0 0 0 467.68,461.7577 L912.3148,461.7577 A7,7 0 0 0 919.3148,454.7577 L919.3148,431.1366 L899.3148,411.1366 L467.68,411.1366 A7,7 0 0 0 460.68,418.1366" fill="#7FFFD4" style="stroke:#454645;stroke-width:3;"/><path d="M899.3148,411.1366 L899.3148,427.6366 A3.5,3.5 0 0 0 902.8148,431.1366 L919.3148,431.1366 L899.3148,411.1366" fill="#7FFFD4" style="stroke:#454645;stroke-width:3;"/><text fill="#454645" font-family="sans-serif" font-size="26" lengthAdjust="spacing" textLength="416.6348" x="472.68" y="446.2733">Instance compl&#232;tement s&#233;par&#233;e !</text></g><!--entity G2--><g class="entity" data-entity="G2" data-source-line="29" data-uid="ent0022" id="entity_G2"><rect fill="#F1F1F1" height="72.9766" rx="7" ry="7" style="stroke:#181818;stroke-width:1;" width="235.7129" x="696.14" y="172.9766"/><text fill="#000000" font-family="sans-serif" font-size="28" lengthAdjust="spacing" textLength="195.7129" x="716.14" y="220.0469">GivenStepDefs</text></g><!--entity W2--><g class="entity" data-entity="W2" data-source-line="30" data-uid="ent0023" id="entity_W2"><rect fill="#F1F1F1" height="72.9766" rx="7" ry="7" style="stroke:#181818;stroke-width:1;" width="234.2227" x="392.88" y="172.9766"/><text fill="#000000" font-family="sans-serif" font-size="28" lengthAdjust="spacing" textLength="194.2227" x="412.88" y="220.0469">WhenStepDefs</text></g><!--entity T2--><g class="entity" data-entity="T2" data-source-line="31" data-uid="ent0024" id="entity_T2"><rect fill="#F1F1F1" height="72.9766" rx="7" ry="7" style="stroke:#181818;stroke-width:1;" width="227.9746" x="94.02" y="172.9766"/><text fill="#000000" font-family="sans-serif" font-size="28" lengthAdjust="spacing" textLength="187.9746" x="114.02" y="220.0469">ThenStepDefs</text></g><!--link TCA to G1--><g class="link" data-entity-1="TCA" data-entity-2="G1" data-source-line="17" data-uid="lnk8" id="link_TCA_G1"><path codeLine="17" d="M438.46,770.3566 C345.36,799.7366 220.1,857.2366 170,961.9166 C163.48,975.5366 167.76,980.9566 170,995.9166 C170.215,997.3516 173.5425,1008.5941 178.6784,1025.5022 C181.2464,1033.9563 184.2665,1043.8267 187.5757,1054.5959 C188.403,1057.2881 189.2483,1060.0366 190.1092,1062.8331 C190.5397,1064.2314 187.4408,1054.1736 187.8787,1055.5949" fill="none" id="TCA-to-G1" style="stroke:#454645;stroke-width:2;"/><polygon fill="#454645" points="191.4119,1067.063,193.7574,1047.5054,188.4675,1057.5062,178.4667,1052.2163,191.4119,1067.063" style="stroke:#454645;stroke-width:2;"/><text fill="#000000" font-family="sans-serif" font-size="26" lengthAdjust="spacing" textLength="83.5732" x="172" y="989.0533">inject&#233;</text></g><!--reverse link TCA to G1--><g class="link" data-entity-1="TCA" data-entity-2="G1" data-source-line="21" data-uid="lnk12" id="link_TCA_G1"><path codeLine="21" d="M519.2764,788.576 C490.2564,831.476 446.88,896.3966 406,961.9166 C391.06,985.8566 375.6425,1011.1516 360.5309,1036.3116 C356.753,1042.6016 352.9943,1048.8831 349.2669,1055.133 C347.4032,1058.2579 345.5473,1061.3749 343.7008,1064.481 C343.2392,1065.2576 342.7782,1066.0334 342.3177,1066.8086" fill="none" id="TCA-backto-G1" style="stroke:#454645;stroke-width:2;"/><polygon fill="#454645" points="526,778.6366,509.2883,789.0633,520.397,786.9194,522.5409,798.0282,526,778.6366" style="stroke:#454645;stroke-width:2;"/><text fill="#000000" font-family="sans-serif" font-size="26" lengthAdjust="spacing" textLength="55.6816" x="408" y="989.0533">&#233;crit</text><text fill="#000000" font-family="sans-serif" font-size="26" lengthAdjust="spacing" textLength="53.2695" x="526.7718" y="819.2017">isbn</text></g><!--link TCA to W1--><g class="link" data-entity-1="TCA" data-entity-2="W1" data-source-line="18" data-uid="lnk9" id="link_TCA_W1"><path codeLine="18" d="M550.86,778.8766 C553.08,869.8366 558.6487,1098.6601 560.8487,1189.2601" fill="none" id="TCA-to-W1" style="stroke:#454645;stroke-width:2;"/><polygon fill="#454645" points="561.14,1201.2566,568.7007,1183.0677,560.8972,1191.2595,552.7054,1183.4561,561.14,1201.2566" style="stroke:#454645;stroke-width:2;"/><text fill="#000000" font-family="sans-serif" font-size="26" lengthAdjust="spacing" textLength="83.5732" x="558.14" y="989.0533">inject&#233;</text></g><!--reverse link TCA to W1--><g class="link" data-entity-1="TCA" data-entity-2="W1" data-source-line="22" data-uid="lnk14" id="link_TCA_W1"><path codeLine="22" d="M531.1714,789.3774 C514.3914,831.8574 492.16,895.1366 482,961.9166 C468.58,1050.2366 513.58,1150.0566 541.48,1201.5366" fill="none" id="TCA-backto-W1" style="stroke:#454645;stroke-width:2;"/><polygon fill="#454645" points="535.58,778.2166,521.5265,792.0187,531.9061,787.5172,536.4076,797.8969,535.58,778.2166" style="stroke:#454645;stroke-width:2;"/><text fill="#000000" font-family="sans-serif" font-size="26" lengthAdjust="spacing" textLength="55.6816" x="484" y="989.0533">&#233;crit</text><text fill="#000000" font-family="sans-serif" font-size="26" lengthAdjust="spacing" textLength="165.6104" x="342.2957" y="819.3096">resultActions</text></g><!--link TCA to T1--><g class="link" data-entity-1="TCA" data-entity-2="T1" data-source-line="19" data-uid="lnk10" id="link_TCA_T1"><path codeLine="19" d="M659.7,778.8366 C723.02,800.2566 792.08,825.7166 802,837.9166 C889.74,945.6966 880.1591,1114.0081 870.7791,1189.5281" fill="none" id="TCA-to-T1" style="stroke:#454645;stroke-width:2;"/><polygon fill="#454645" points="869.3,1201.4366,879.4576,1184.5599,870.5326,1191.5128,863.5797,1182.5878,869.3,1201.4366" style="stroke:#454645;stroke-width:2;"/><text fill="#000000" font-family="sans-serif" font-size="26" lengthAdjust="spacing" textLength="83.5732" x="869.14" y="989.0533">inject&#233;</text></g><!--reverse link TCA to T1--><g class="link" data-entity-1="TCA" data-entity-2="T1" data-source-line="23" data-uid="lnk16" id="link_TCA_T1"><path codeLine="23" d="M579.027,788.9977 C636.967,879.9577 783.92,1110.6566 841.62,1201.2566" fill="none" id="TCA-backto-T1" style="stroke:#454645;stroke-width:2;"/><polygon fill="#454645" points="572.58,778.8766,575.5031,798.3562,577.9525,787.3108,588.9979,789.7602,572.58,778.8766" style="stroke:#454645;stroke-width:2;"/><text fill="#000000" font-family="sans-serif" font-size="26" lengthAdjust="spacing" textLength="24.7559" x="712.62" y="989.0533">lit</text><text fill="#000000" font-family="sans-serif" font-size="26" lengthAdjust="spacing" textLength="165.6104" x="602.2175" y="818.8527">resultActions</text></g><!--reverse link G2 to TCB--><g class="link" data-entity-1="G2" data-entity-2="TCB" data-source-line="33" data-uid="lnk26" id="link_G2_TCB"><path codeLine="33" d="M720.4084,251.6392 C659.7684,277.5992 586.38,308.8566 512,339.9566 C464.8,359.6966 412.02,381.3966 368.94,399.0366" fill="none" id="G2-backto-TCB" style="stroke:#454645;stroke-width:2;"/><polygon fill="#454645" points="731.44,246.9166,711.7441,246.6461,722.247,250.8521,718.041,261.3549,731.44,246.9166" style="stroke:#454645;stroke-width:2;"/><text fill="#000000" font-family="sans-serif" font-size="26" lengthAdjust="spacing" textLength="83.5732" x="588.7" y="333.0933">inject&#233;</text></g><!--reverse link W2 to TCB--><g class="link" data-entity-1="W2" data-entity-2="TCB" data-source-line="34" data-uid="lnk28" id="link_W2_TCB"><path codeLine="34" d="M465.3008,255.1869 C422.6008,296.9469 360.58,357.5966 317.96,399.2766" fill="none" id="W2-backto-TCB" style="stroke:#454645;stroke-width:2;"/><polygon fill="#454645" points="473.88,246.7966,455.4177,253.6626,466.7307,253.7885,466.6048,265.1015,473.88,246.7966" style="stroke:#454645;stroke-width:2;"/><text fill="#000000" font-family="sans-serif" font-size="26" lengthAdjust="spacing" textLength="83.5732" x="411.66" y="333.0933">inject&#233;</text></g><!--reverse link T2 to TCB--><g class="link" data-entity-1="T2" data-entity-2="TCB" data-source-line="35" data-uid="lnk30" id="link_T2_TCB"><path codeLine="35" d="M223.34,257.7057 C237.16,299.3457 256.38,357.2566 270.28,399.1166" fill="none" id="T2-backto-TCB" style="stroke:#454645;stroke-width:2;"/><polygon fill="#454645" points="219.56,246.3166,217.6372,265.9202,222.71,255.8075,232.8227,260.8803,219.56,246.3166" style="stroke:#454645;stroke-width:2;"/><text fill="#000000" font-family="sans-serif" font-size="26" lengthAdjust="spacing" textLength="83.5732" x="251.44" y="333.0933">inject&#233;</text></g><!--reverse link S2 to S1--><!--SRC=[ZL8xReD04EqvnPYUmfGkBFcZMAb1eeXIhDTZs0JFejt1iHJvFk4SN2m3Ta6GaKD1yJuxk-_DZ0iy8PpDtYdYW0sN22zbVO43mjOIjGrwK6VKK1Eaw7bZYV72WIfB-tKo5qDv45HAVweS8Knqsv1oni8y1EKXcSDt063t7wWPmi41iEe5wMObl1DMKIwpmvqv8oMCrHQFlfViRcV8Lrd7XY0q50fm_MlCYf4l-vyl7VlIIP_yvBuGHKkvr08CTQzgcm6SFORJ8IouF2cgevuHnGBQHZiZ-HY_xqTb4xn3NvUyqcmi-KwOZeJb0zNrOJ_nhPzuif_rlP-ry6GPmPcyOB373fDHh-GbGesWxQagsn-MHI86tpQLSh8sC7jQRFoimVXPLV6jatMNWfGIZzA_uza4dWvnYKcsDNehpE60z2wfBfCu-0K0]--></g></svg>